<svg width="21" height="20" viewBox="0 0 21 20" fill="none" xmlns="http://www.w3.org/2000/svg">
<g clip-path="url(#clip0_298_387)">
<path d="M17.2109 5.89117C18.0288 5.87808 18.826 6.14799 19.4678 6.6552C20.0121 7.08106 20.4182 7.65835 20.6352 8.31445C20.8522 8.97056 20.8703 9.67618 20.6873 10.3426C20.3045 11.6956 19.1092 12.7268 17.7265 12.8909C17.5392 12.9129 17.3509 12.9244 17.1624 12.9253C16.1015 12.9253 15.0406 12.9253 13.9797 12.9253H13.7454V12.7042C13.7454 11.8323 13.7454 10.9597 13.7454 10.0879C13.7454 8.98558 12.9962 8.23951 11.8931 8.23795C11.1642 8.23795 10.4353 8.23795 9.70569 8.23795C8.64479 8.23795 7.88935 8.99886 7.88701 10.0621C7.88701 11.0058 7.88701 11.9495 7.88701 12.9089C7.83656 12.9169 7.7857 12.9221 7.73467 12.9245C6.98001 12.9245 6.22457 12.9315 5.46913 12.9245C4.83657 12.915 4.21235 12.7786 3.6335 12.5233C3.05465 12.268 2.53296 11.8991 2.09937 11.4384C1.66579 10.9777 1.32914 10.4346 1.10938 9.8414C0.889634 9.24815 0.79126 8.61682 0.820097 7.98484C0.932592 5.73649 2.75908 3.81469 5.00275 3.58579C5.15041 3.56168 5.30009 3.55226 5.4496 3.55767C5.64725 3.57798 5.71834 3.50454 5.78318 3.31705C6.38238 1.57259 7.57061 0.442945 9.38929 0.0859276C11.4205 -0.314057 13.418 0.710903 14.368 2.5663C14.5118 2.84754 14.6024 3.15768 14.7266 3.44908C14.7424 3.48717 14.7656 3.52177 14.7948 3.55086C14.824 3.57996 14.8587 3.60298 14.8969 3.6186C16.0929 3.90531 16.8617 4.63419 17.1843 5.82242C17.192 5.84577 17.2009 5.86871 17.2109 5.89117Z" fill="#8C7C53" fill-opacity="0.5"/>
<path d="M12.5732 15.2698C12.9638 15.2698 13.32 15.2698 13.6778 15.2698C13.9426 15.2698 14.1504 15.3612 14.2692 15.6033C14.3879 15.8455 14.3223 16.0807 14.1497 16.2885C13.2054 17.4343 12.2615 18.5785 11.3177 19.7212C11.0092 20.0946 10.6209 20.0946 10.3147 19.7212C9.3699 18.5754 8.42566 17.4311 7.48195 16.2885C7.3093 16.0807 7.23587 15.8588 7.35852 15.6049C7.48117 15.351 7.696 15.2627 7.96709 15.2674C8.32332 15.2729 8.67956 15.2674 9.05611 15.2674V15.0237C9.05611 13.3836 9.05611 11.7431 9.05611 10.102C9.05611 9.63327 9.27797 9.40906 9.74749 9.40906H11.8755C12.3482 9.40906 12.5716 9.63014 12.5716 10.0981C12.5716 11.7386 12.5716 13.3792 12.5716 15.0198L12.5732 15.2698Z" fill="#8C7C53" fill-opacity="0.5"/>
</g>
<defs>
<clipPath id="clip0_298_387">
<rect width="20.0008" height="20" fill="white" transform="translate(0.813477)"/>
</clipPath>
</defs>
</svg>
