<svg width="122" height="42" viewBox="0 0 122 42" fill="none" xmlns="http://www.w3.org/2000/svg">
<g clip-path="url(#clip0_298_44)">
<path d="M19.4916 3.21441L10.7054 23.2526L5.49036 8.29265L0 10.2828L10.1588 38.6934L26.6287 0.675293L19.4916 3.21441ZM2.6078 11.4494L4.32325 10.557L10.4993 28.5369L20.7926 4.86117L23.263 4.03808L10.4999 33.3398L2.6078 11.4494Z" fill="url(#paint0_linear_298_44)"/>
<path d="M7.13965 7.81242L11.0185 18.6892L17.209 4.03809L7.13965 7.81242ZM9.54139 9.04764L13.6592 7.4003L11.1195 13.3022L9.54139 9.04764Z" fill="url(#paint1_linear_298_44)"/>
<path d="M10.9109 41.4378L13.45 40.5461L29.4397 3.55713L26.9006 4.65497L10.9109 41.4378Z" fill="url(#paint2_linear_298_44)"/>
<path d="M29.5993 7.4L32.1846 6.64502L19.1219 36.5315L16.6064 37.4573L29.5993 7.4Z" fill="url(#paint3_linear_298_44)"/>
<path d="M37.8972 14.8971C37.5766 14.154 37.2755 13.6447 36.9939 13.3692C36.7122 13.0937 36.3081 12.9303 35.7817 12.8791V12.4947C35.8464 12.4947 35.9387 12.4884 36.0605 12.4757C36.185 12.4627 36.31 12.4561 36.4351 12.4561C37.0828 12.4574 37.7191 12.6262 38.2822 12.9461C38.8717 13.2732 39.3719 13.9235 39.7829 14.8971L43.0695 22.6431L44.2037 20.0099C44.7424 18.767 45.7739 16.3131 47.2981 12.6483H48.2216L42.7053 25.5263H42.359L37.8972 14.8971Z" fill="white"/>
<path d="M51.9194 24.8344C51.0163 24.2456 50.3211 23.4375 49.8339 22.4101C49.3468 21.3827 49.1028 20.2431 49.1021 18.9913C49.1021 17.7361 49.3454 16.5958 49.8322 15.5703C50.319 14.5448 51.0141 13.7367 51.9177 13.146C52.8212 12.5565 53.8688 12.2617 55.0605 12.2617C56.2523 12.2617 57.2997 12.5565 58.2028 13.146C59.1059 13.7355 59.8011 14.5436 60.2883 15.5703C60.7754 16.5969 61.019 17.7373 61.019 18.9913C61.019 20.2473 60.7754 21.3879 60.2883 22.413C59.8011 23.4381 59.1059 24.2462 58.2028 24.8373C57.2993 25.4264 56.2519 25.7211 55.0605 25.7215C53.8692 25.7219 52.8221 25.4262 51.9194 24.8344ZM57.2245 24.2196C57.8328 23.7325 58.2973 23.0437 58.6178 22.1533C58.9384 21.2628 59.0986 20.2089 59.0986 18.9913C59.0986 17.7738 58.9384 16.7198 58.6178 15.8294C58.2973 14.939 57.8328 14.2504 57.2245 13.7636C56.6153 13.2764 55.8946 13.0329 55.0623 13.0329C54.2299 13.0329 53.509 13.2764 52.8995 13.7636C52.2911 14.2508 51.8266 14.9394 51.5061 15.8294C51.1856 16.7195 51.0255 17.7734 51.0259 18.9913C51.0259 20.2092 51.1859 21.2632 51.5061 22.1533C51.8263 23.0433 52.2907 23.7321 52.8995 24.2196C53.5078 24.7068 54.2288 24.9502 55.0623 24.9498C55.8957 24.9494 56.6165 24.7062 57.2245 24.2202V24.2196Z" fill="white"/>
<path d="M70.4867 24.9204C69.9807 24.5172 69.42 23.7901 68.8047 22.7392L66.8826 19.4716H65.5372V25.3337H63.8056V14.9545C63.8056 14.3003 63.7159 13.8166 63.5366 13.5034C63.3573 13.1901 62.9984 13.0331 62.4601 13.0324H62.0757V12.6479H67.0731C68.2902 12.6479 69.3954 12.8883 70.3886 13.3689C71.3817 13.8495 71.8783 14.7624 71.8783 16.1077C71.8783 17.8124 70.8532 18.9016 68.803 19.3753L70.8232 22.7392C71.2973 23.5338 71.7233 24.0879 72.1011 24.4015C72.4741 24.7137 72.9334 24.9048 73.4177 24.9493V25.3337C73.2601 25.3971 73.0956 25.4422 72.9277 25.4682C72.7088 25.5075 72.4868 25.5268 72.2645 25.5259C71.6194 25.5378 70.9905 25.3236 70.4867 24.9204ZM68.276 18.5106C68.7447 18.3176 69.1554 18.0063 69.4679 17.6073C69.7946 17.1967 69.958 16.6964 69.958 16.1065C69.958 15.4789 69.7946 14.9568 69.4679 14.54C69.1564 14.1351 68.7459 13.8171 68.276 13.6165C67.8085 13.4179 67.3761 13.3187 66.979 13.3187C66.492 13.3235 66.0074 13.3881 65.536 13.5109V18.6041C66.0074 18.7269 66.492 18.7915 66.979 18.7963C67.3746 18.7979 67.8069 18.7026 68.276 18.5106Z" fill="white"/>
<path d="M76.9063 24.8338C76.0024 24.2451 75.307 23.437 74.8202 22.4096C74.3335 21.3822 74.0901 20.2416 74.0901 18.9879C74.0901 17.7327 74.3335 16.5923 74.8202 15.5668C75.307 14.5413 76.0024 13.7332 76.9063 13.1426C77.8094 12.5531 78.8568 12.2583 80.0486 12.2583C81.2403 12.2583 82.2879 12.5531 83.1914 13.1426C84.0949 13.7321 84.7901 14.5402 85.2769 15.5668C85.7636 16.5935 86.007 17.7338 86.007 18.9879C86.007 20.2439 85.7636 21.3845 85.2769 22.4096C84.7901 23.4347 84.0949 24.2428 83.1914 24.8338C82.2883 25.423 81.2407 25.7177 80.0486 25.7181C78.8564 25.7185 77.809 25.4237 76.9063 24.8338ZM82.2108 24.2191C82.8191 23.7319 83.2838 23.0431 83.6047 22.1527C83.9256 21.2623 84.0857 20.2083 84.0849 18.9908C84.0849 17.7733 83.9249 16.7193 83.6047 15.8289C83.2845 14.9384 82.8199 14.2498 82.2108 13.7631C81.6024 13.2759 80.8817 13.0323 80.0486 13.0323C79.2155 13.0323 78.4947 13.2759 77.8863 13.7631C77.2776 14.2502 76.8131 14.9388 76.493 15.8289C76.1728 16.7189 76.0126 17.7729 76.0122 18.9908C76.0122 20.2087 76.1724 21.2627 76.493 22.1527C76.8135 23.0428 77.278 23.7316 77.8863 24.2191C78.4947 24.7063 79.2155 24.9497 80.0486 24.9493C80.8817 24.9489 81.6024 24.7057 82.2108 24.2197V24.2191Z" fill="white"/>
<path d="M88.7943 14.9545C88.7943 14.3003 88.7045 13.8166 88.5248 13.5034C88.3451 13.1901 87.9864 13.0331 87.4489 13.0324H87.0645V12.6479H92.0619C93.4579 12.6479 94.672 12.8788 95.704 13.3406C96.7361 13.8024 97.2519 14.693 97.2515 16.0125C97.2515 16.6151 97.0464 17.1596 96.6362 17.646C96.226 18.1323 95.5982 18.5171 94.7528 18.8004C95.9314 18.9928 96.7547 19.342 97.2227 19.848C97.6906 20.354 97.9243 21.0299 97.924 21.8757C97.924 23.1706 97.4147 24.0708 96.3961 24.5764C95.3775 25.0821 94.125 25.3351 92.6385 25.3355H88.7943V14.9545ZM92.3499 18.5106C92.8615 18.5133 93.3684 18.412 93.8397 18.2128C94.2928 18.0252 94.6876 17.7199 94.9831 17.3285C95.2782 16.9379 95.4256 16.4669 95.4252 15.9155C95.4252 15.3383 95.2521 14.8546 94.9058 14.4644C94.5495 14.0664 94.0958 13.768 93.5892 13.5986C93.0674 13.4145 92.5182 13.3202 91.9649 13.3198C91.4779 13.3246 90.9932 13.3892 90.5219 13.512V18.5094L92.3499 18.5106ZM95.0506 23.9692C95.6852 23.5075 96.0023 22.8412 96.0019 21.9704C96.0015 21.0996 95.6908 20.4333 95.0697 19.9715C94.4478 19.5097 93.5413 19.2789 92.3499 19.2789H90.5242V24.3929C91.1168 24.5691 91.7316 24.6597 92.3499 24.6619C93.5159 24.6615 94.4161 24.4306 95.0506 23.9692Z" fill="white"/>
<path d="M100.749 14.9545C100.749 14.3003 100.66 13.8166 100.48 13.5034C100.301 13.1901 99.9423 13.0331 99.4039 13.0324H99.0195V12.6479H107.208C108.297 12.6479 108.842 13.1605 108.841 14.1856V15.6286H108.457C108.457 14.1548 107.656 13.4179 106.054 13.4179H102.479V18.4154H107.669V19.1842H102.479V24.566H105.841C106.726 24.566 107.419 24.406 107.919 24.0858C108.419 23.7657 108.816 23.221 109.111 22.4517L109.495 22.5481L108.822 24.3738C108.591 25.0149 108.11 25.3353 107.379 25.3349H100.749V14.9545Z" fill="white"/>
<path d="M111.609 14.8971C111.289 14.154 110.988 13.6447 110.706 13.3692C110.424 13.0937 110.02 12.9303 109.494 12.8791V12.4947C109.559 12.4947 109.651 12.4884 109.773 12.4757C109.897 12.4627 110.023 12.4561 110.148 12.4561C110.796 12.4572 111.432 12.6261 111.995 12.9461C112.584 13.2732 113.085 13.9235 113.496 14.8971L116.782 22.6431L117.916 20.0099C118.455 18.767 119.487 16.3131 121.011 12.6483H121.934L116.417 25.5263H116.071L111.609 14.8971Z" fill="white"/>
<path d="M78.4821 35.204L77.1805 33.3806C77.005 33.406 76.828 33.4191 76.6506 33.4199H75.0922V35.204H74.6951V29.75H76.6506C78.0221 29.75 78.848 30.4357 78.848 31.589C78.848 32.4548 78.3805 33.0533 77.5701 33.2952L78.934 35.204H78.4821ZM76.6506 33.0683C77.8195 33.0683 78.44 32.5229 78.44 31.5884C78.44 30.6452 77.8166 30.1079 76.6506 30.1079H75.0922V33.0683H76.6506Z" fill="white"/>
<path d="M83.4837 33.2641H79.9824C80.0216 34.2304 80.7327 34.8849 81.7047 34.8849C82.219 34.8849 82.6941 34.6979 83.0058 34.3158L83.232 34.5732C82.8736 35.0096 82.3125 35.2353 81.6967 35.2353C80.4655 35.2353 79.6008 34.3781 79.6008 33.1706C79.6008 31.9631 80.4343 31.106 81.5489 31.106C82.6635 31.106 83.4889 31.9475 83.4889 33.155C83.4912 33.1862 83.4837 33.2243 83.4837 33.2641ZM79.9928 32.9599H83.1097C83.0519 32.0797 82.417 31.4488 81.5512 31.4488C80.6854 31.4488 80.0551 32.0699 79.9928 32.9599Z" fill="white"/>
<path d="M87.3869 32.6252V35.2042H87.0129V34.4798C86.7555 34.9473 86.2568 35.2354 85.548 35.2354C84.636 35.2354 84.083 34.7678 84.083 34.0746C84.083 33.4587 84.4726 32.9369 85.6028 32.9369H86.9973V32.6097C86.9973 31.8535 86.584 31.4489 85.7892 31.4489C85.2748 31.4434 84.7761 31.6264 84.3872 31.9632L84.1921 31.6827C84.5961 31.3242 85.1895 31.1055 85.8204 31.1055C86.8259 31.106 87.3869 31.6203 87.3869 32.6252ZM86.9973 34.0042V33.2405H85.612C84.7705 33.2405 84.4743 33.5915 84.4743 34.059C84.4743 34.5889 84.8876 34.9162 85.6045 34.9162C86.2879 34.9162 86.7635 34.5889 86.9973 34.0042Z" fill="white"/>
<path d="M88.8599 29.4229H89.2495V35.2041H88.8599V29.4229Z" fill="white"/>
<path d="M92.7245 34.9471C92.5219 35.1416 92.1947 35.2357 91.8911 35.2357C91.1742 35.2357 90.7845 34.8149 90.7845 34.1292V31.4741H90.0342V31.1393H90.7845V30.251H91.1742V31.1393H92.4677V31.4741H91.1742V34.09C91.1742 34.6094 91.431 34.898 91.9297 34.898C92.161 34.9034 92.3859 34.8227 92.5612 34.6718L92.7245 34.9471Z" fill="white"/>
<path d="M96.8628 31.1372L94.7745 35.7577C94.4473 36.5081 94.0421 36.7471 93.5047 36.7471C93.1382 36.7471 92.7953 36.6224 92.5615 36.3811L92.7566 36.085C92.8524 36.1891 92.9694 36.2715 93.0998 36.3266C93.2301 36.3816 93.3707 36.4081 93.5122 36.4042C93.8862 36.4042 94.1592 36.231 94.408 35.6798L94.6268 35.1886L92.7964 31.1372H93.2097L94.838 34.7736L96.4663 31.1372H96.8628Z" fill="white"/>
<path d="M103.471 32.5006H103.853V34.5421C103.362 35.0097 102.653 35.2434 101.904 35.2434C100.261 35.2434 99.0525 34.0665 99.0525 32.4769C99.0525 30.8873 100.261 29.7109 101.913 29.7109C102.699 29.7109 103.393 29.9603 103.875 30.4613L103.625 30.7262C103.15 30.2587 102.582 30.0798 101.919 30.0798C100.501 30.0798 99.449 31.1083 99.449 32.4792C99.449 33.8501 100.501 34.8792 101.919 34.8792C102.496 34.8792 103.025 34.739 103.47 34.3805L103.471 32.5006Z" fill="white"/>
<path d="M107.265 31.106V31.4875C107.234 31.4875 107.203 31.48 107.172 31.48C106.268 31.48 105.729 32.0797 105.729 33.0846V35.2041H105.339V31.1371H105.713V32.0254C105.964 31.435 106.502 31.106 107.265 31.106Z" fill="white"/>
<path d="M107.725 33.1706C107.725 31.9631 108.591 31.106 109.759 31.106C110.926 31.106 111.793 31.9631 111.793 33.1706C111.793 34.3781 110.927 35.2353 109.759 35.2353C108.59 35.2353 107.725 34.3787 107.725 33.1706ZM111.395 33.1706C111.395 32.1495 110.694 31.4563 109.759 31.4563C108.824 31.4563 108.122 32.149 108.122 33.1706C108.122 34.1923 108.824 34.8849 109.759 34.8849C110.694 34.8849 111.395 34.1911 111.395 33.1706Z" fill="white"/>
<path d="M116.429 31.1372V35.2042H116.057V34.3315C115.793 34.9006 115.24 35.2354 114.523 35.2354C113.484 35.2354 112.824 34.6512 112.824 33.5136V31.1372H113.214V33.4824C113.214 34.4019 113.704 34.885 114.554 34.885C115.473 34.885 116.042 34.2691 116.042 33.3029V31.1372H116.429Z" fill="white"/>
<path d="M122.003 33.1706C122.003 34.3937 121.137 35.2353 119.992 35.2353C119.276 35.2353 118.668 34.8849 118.341 34.2771V36.7158H117.951V31.1371H118.325V32.0953C118.645 31.4719 119.26 31.106 119.992 31.106C121.137 31.106 122.003 31.9544 122.003 33.1706ZM121.613 33.1706C121.613 32.1495 120.904 31.4563 119.969 31.4563C119.034 31.4563 118.333 32.149 118.333 33.1706C118.333 34.1923 119.034 34.8849 119.969 34.8849C120.904 34.8849 121.61 34.1911 121.61 33.1706H121.613Z" fill="white"/>
<path d="M36.8606 33.1265H71.1465" stroke="white" stroke-width="0.5" stroke-miterlimit="10"/>
</g>
<defs>
<linearGradient id="paint0_linear_298_44" x1="0" y1="19.6843" x2="26.6264" y2="19.6843" gradientUnits="userSpaceOnUse">
<stop stop-color="#E7E3E0"/>
<stop offset="0.06" stop-color="#D8D4D3"/>
<stop offset="0.19" stop-color="#B2ADB0"/>
<stop offset="0.26" stop-color="#989398"/>
<stop offset="0.52" stop-color="#F8F8F8"/>
<stop offset="0.59" stop-color="#EAE9EA"/>
<stop offset="0.71" stop-color="#C5C2C4"/>
<stop offset="0.88" stop-color="#8C878A"/>
<stop offset="1" stop-color="#B2B2B2"/>
</linearGradient>
<linearGradient id="paint1_linear_298_44" x1="7.13734" y1="11.3634" x2="17.2067" y2="11.3634" gradientUnits="userSpaceOnUse">
<stop stop-color="#E7E3E0"/>
<stop offset="0.06" stop-color="#D8D4D3"/>
<stop offset="0.19" stop-color="#B2ADB0"/>
<stop offset="0.26" stop-color="#989398"/>
<stop offset="0.52" stop-color="#F8F8F8"/>
<stop offset="0.59" stop-color="#EAE9EA"/>
<stop offset="0.71" stop-color="#C5C2C4"/>
<stop offset="0.88" stop-color="#8C878A"/>
<stop offset="1" stop-color="#B2B2B2"/>
</linearGradient>
<linearGradient id="paint2_linear_298_44" x1="10.9109" y1="22.4975" x2="29.4397" y2="22.4975" gradientUnits="userSpaceOnUse">
<stop stop-color="#E7E3E0"/>
<stop offset="0.06" stop-color="#D8D4D3"/>
<stop offset="0.19" stop-color="#B2ADB0"/>
<stop offset="0.26" stop-color="#989398"/>
<stop offset="0.52" stop-color="#F8F8F8"/>
<stop offset="0.59" stop-color="#EAE9EA"/>
<stop offset="0.71" stop-color="#C5C2C4"/>
<stop offset="0.88" stop-color="#8C878A"/>
<stop offset="1" stop-color="#B2B2B2"/>
</linearGradient>
<linearGradient id="paint3_linear_298_44" x1="16.6064" y1="22.0512" x2="32.1846" y2="22.0512" gradientUnits="userSpaceOnUse">
<stop stop-color="#E7E3E0"/>
<stop offset="0.06" stop-color="#D8D4D3"/>
<stop offset="0.19" stop-color="#B2ADB0"/>
<stop offset="0.26" stop-color="#989398"/>
<stop offset="0.52" stop-color="#F8F8F8"/>
<stop offset="0.59" stop-color="#EAE9EA"/>
<stop offset="0.71" stop-color="#C5C2C4"/>
<stop offset="0.88" stop-color="#8C878A"/>
<stop offset="1" stop-color="#B2B2B2"/>
</linearGradient>
<clipPath id="clip0_298_44">
<rect width="122" height="40.7627" fill="white" transform="translate(0 0.675293)"/>
</clipPath>
</defs>
</svg>
