<svg xmlns="http://www.w3.org/2000/svg">
    <symbol id="whatsap" viewBox="0 0 21 21">
        <circle cx="10.5" cy="10.5" r="10.5" fill="#47C53A"/>
            <g clip-path="url(#clip0_298_518)">
            <path d="M10.4581 15.2321C9.66571 15.2339 8.8841 15.0487 8.17679 14.6915C8.14111 14.6717 8.10156 14.6598 8.06085 14.6568C8.02015 14.6538 7.97927 14.6596 7.94106 14.674C7.11894 14.9383 6.29585 15.2003 5.47178 15.4601C5.40164 15.4825 5.3315 15.5127 5.26624 15.4484C5.20098 15.3841 5.23117 15.3139 5.25455 15.2438C5.52275 14.4548 5.79127 13.6658 6.06012 12.8768C6.07479 12.8404 6.08077 12.8012 6.07755 12.7621C6.07434 12.723 6.06203 12.6853 6.04161 12.6518C5.59076 11.8719 5.37273 10.9792 5.41333 10.0792C5.49807 8.26551 6.33383 6.88038 7.8758 5.93163C8.72027 5.41611 9.70228 5.17137 10.6899 5.23028C11.7012 5.27736 12.6748 5.62772 13.4842 6.23578C14.2936 6.84383 14.9013 7.68141 15.2281 8.63956C15.5799 9.68531 15.5749 10.8182 15.2139 11.8608C14.853 12.9035 14.1563 13.7969 13.2332 14.4012C12.4088 14.9425 11.4443 15.2312 10.4581 15.2321ZM6.80529 13.9376L6.90757 13.9093C7.28843 13.7885 7.67124 13.6697 8.05113 13.544C8.09567 13.5265 8.14384 13.5202 8.19139 13.5256C8.23895 13.531 8.28444 13.5481 8.32387 13.5752C8.81803 13.8908 9.37712 14.0906 9.95935 14.1597C10.6725 14.2477 11.3962 14.142 12.0544 13.8537C12.7126 13.5654 13.2809 13.1051 13.6998 12.5213C14.1595 11.8854 14.4171 11.126 14.4389 10.3417C14.4608 9.55741 14.246 8.78473 13.8225 8.12428C13.2979 7.28392 12.475 6.67292 11.5188 6.41379C10.7885 6.20383 10.0126 6.21263 9.28724 6.43912C8.57942 6.64902 7.94509 7.05413 7.45695 7.60801C6.86681 8.26592 6.51672 9.1042 6.46366 9.9864C6.4106 10.8686 6.65769 11.7428 7.16472 12.4667C7.1967 12.5075 7.21724 12.5561 7.22426 12.6074C7.23128 12.6588 7.22451 12.7111 7.20466 12.7589C7.07121 13.1466 6.94263 13.5324 6.80529 13.9376Z" fill="white"/>
            <path d="M11.8205 12.634C11.5351 12.6198 11.2533 12.5644 10.9838 12.4694C9.86847 12.1343 9.07947 11.3891 8.43171 10.4599C8.20475 10.1335 8.00701 9.79457 7.94467 9.39617C7.87341 9.01092 7.95293 8.61302 8.16676 8.28474C8.21815 8.20012 8.28646 8.12702 8.36742 8.07003C8.44838 8.01304 8.54024 7.97339 8.63724 7.95357C8.76485 7.92921 8.89245 7.90388 9.02103 7.88635C9.09085 7.87178 9.16357 7.882 9.22668 7.91524C9.28978 7.94849 9.33934 8.00268 9.36682 8.0685C9.52268 8.41527 9.66976 8.76594 9.81392 9.11758C9.87529 9.26857 9.79541 9.39909 9.71651 9.51793C9.64443 9.62118 9.55385 9.71274 9.4769 9.81015C9.45839 9.83548 9.44475 9.89003 9.45839 9.90756C9.86166 10.4823 10.3487 10.9615 11.0042 11.2479C11.0179 11.2567 11.0332 11.2626 11.0492 11.2652C11.0653 11.2678 11.0817 11.2671 11.0974 11.2631C11.1131 11.259 11.1278 11.2518 11.1406 11.2418C11.1534 11.2318 11.164 11.2193 11.1718 11.205C11.276 11.0677 11.389 10.9352 11.4981 10.7998C11.6072 10.6644 11.7192 10.6206 11.8946 10.6878C12.0222 10.7355 12.1459 10.7959 12.2686 10.8544C12.4858 10.9576 12.7001 11.0648 12.9164 11.17C12.9651 11.1921 13.0062 11.2281 13.0346 11.2735C13.0631 11.3189 13.0775 11.3717 13.0761 11.4252C13.1131 12.1781 12.5111 12.5629 11.9666 12.6204C11.9218 12.6301 11.878 12.6311 11.8205 12.634Z" fill="white"/>
            </g>
    </symbol>
    <symbol id="telegram" viewBox="0 0 21 21">
        <circle cx="10.5" cy="10.5" r="10.5" fill="#4C9DD9"/>
        <g clip-path="url(#clip0_298_512)">
        <path d="M10.9289 12.7721C10.8415 12.809 10.7576 12.8531 10.6781 12.904C10.3136 13.1834 9.95421 13.4696 9.59225 13.7534C9.39938 13.907 9.21679 13.8543 9.14222 13.6208C8.88934 12.8402 8.63754 12.0594 8.3868 11.2785C8.3791 11.2433 8.36173 11.2109 8.3365 11.1845C8.31126 11.1581 8.27911 11.1388 8.24344 11.1285C7.60053 10.901 6.95762 10.6697 6.31472 10.4347C6.24853 10.4124 6.18972 10.3735 6.14435 10.3219C6.12324 10.2934 6.10927 10.2605 6.10354 10.2259C6.0978 10.1913 6.10045 10.1558 6.11128 10.1224C6.12211 10.0889 6.14083 10.0583 6.16598 10.0329C6.19112 10.0076 6.222 9.98819 6.25621 9.97626C6.37965 9.92298 6.50823 9.88023 6.63488 9.83315C9.34795 8.8246 12.0614 7.81605 14.7754 6.8075C14.8317 6.78405 14.8927 6.77264 14.9541 6.77404C15.1045 6.78705 15.192 6.92086 15.1592 7.0745C15.0602 7.5383 14.9603 8.00273 14.8596 8.46777C14.5317 9.98555 14.2042 11.5037 13.8772 13.0223C13.7956 13.4002 13.7146 13.7788 13.631 14.156C13.5828 14.3722 13.3983 14.441 13.2112 14.3109C12.5348 13.8389 11.8611 13.3649 11.1822 12.8954C11.1011 12.848 11.0165 12.8068 10.9289 12.7721ZM8.8317 11.1124C8.83504 11.1467 8.84106 11.1806 8.8497 11.214C8.99328 11.7026 9.13772 12.1912 9.28302 12.6798C9.29973 12.7374 9.32738 12.7801 9.39681 12.7758C9.46625 12.7715 9.49196 12.7207 9.50032 12.6593C9.53054 12.4369 9.56461 12.2151 9.59033 11.9921C9.61226 11.7584 9.72751 11.5421 9.91178 11.3887C10.7951 10.6057 11.6727 9.81518 12.5522 9.02779L13.1617 8.48202C13.199 8.44856 13.244 8.41387 13.199 8.35811C13.154 8.30236 13.1096 8.33953 13.0665 8.36617L13.044 8.37918L9.98699 10.1931C9.67326 10.3789 9.36016 10.5648 9.04578 10.7506C8.98009 10.7873 8.92568 10.8401 8.88807 10.9037C8.85046 10.9672 8.83101 11.0393 8.8317 11.1124Z" fill="white"/>
        </g>
    </symbol>
    <symbol id="logo" viewBox="0 0 49 42">
        <path d="M19.4916 3.21441L10.7054 23.2526L5.49036 8.29265L0 10.2828L10.1588 38.6934L26.6287 0.675293L19.4916 3.21441ZM2.6078 11.4494L4.32325 10.557L10.4993 28.5369L20.7926 4.86117L23.263 4.03808L10.4999 33.3398L2.6078 11.4494Z" fill="url(#paint0_linear_298_47)"/>
<path d="M7.13965 7.81242L11.0185 18.6892L17.209 4.03809L7.13965 7.81242ZM9.54139 9.04764L13.6592 7.4003L11.1195 13.3022L9.54139 9.04764Z" fill="url(#paint1_linear_298_47)"/>
<path d="M10.9109 41.4378L13.45 40.5461L29.4397 3.55713L26.9006 4.65497L10.9109 41.4378Z" fill="url(#paint2_linear_298_47)"/>
<path d="M29.5993 7.4L32.1846 6.64502L19.1219 36.5315L16.6064 37.4573L29.5993 7.4Z" fill="url(#paint3_linear_298_47)"/>
<path d="M37.8972 14.8971C37.5766 14.154 37.2755 13.6447 36.9939 13.3692C36.7122 13.0937 36.3081 12.9303 35.7817 12.8791V12.4947C35.8464 12.4947 35.9387 12.4884 36.0605 12.4757C36.185 12.4627 36.31 12.4561 36.4351 12.4561C37.0828 12.4574 37.7191 12.6262 38.2822 12.9461C38.8717 13.2732 39.3719 13.9235 39.7829 14.8971L43.0695 22.6431L44.2037 20.0099C44.7424 18.767 45.7739 16.3131 47.2981 12.6483H48.2216L42.7053 25.5263H42.359L37.8972 14.8971Z" fill="white"/>
<defs>
<linearGradient id="paint0_linear_298_47" x1="0" y1="19.6843" x2="26.6264" y2="19.6843" gradientUnits="userSpaceOnUse">
<stop stop-color="#E7E3E0"/>
<stop offset="0.06" stop-color="#D8D4D3"/>
<stop offset="0.19" stop-color="#B2ADB0"/>
<stop offset="0.26" stop-color="#989398"/>
<stop offset="0.52" stop-color="#F8F8F8"/>
<stop offset="0.59" stop-color="#EAE9EA"/>
<stop offset="0.71" stop-color="#C5C2C4"/>
<stop offset="0.88" stop-color="#8C878A"/>
<stop offset="1" stop-color="#B2B2B2"/>
</linearGradient>
<linearGradient id="paint1_linear_298_47" x1="7.13734" y1="11.3634" x2="17.2067" y2="11.3634" gradientUnits="userSpaceOnUse">
<stop stop-color="#E7E3E0"/>
<stop offset="0.06" stop-color="#D8D4D3"/>
<stop offset="0.19" stop-color="#B2ADB0"/>
<stop offset="0.26" stop-color="#989398"/>
<stop offset="0.52" stop-color="#F8F8F8"/>
<stop offset="0.59" stop-color="#EAE9EA"/>
<stop offset="0.71" stop-color="#C5C2C4"/>
<stop offset="0.88" stop-color="#8C878A"/>
<stop offset="1" stop-color="#B2B2B2"/>
</linearGradient>
<linearGradient id="paint2_linear_298_47" x1="10.9109" y1="22.4975" x2="29.4397" y2="22.4975" gradientUnits="userSpaceOnUse">
<stop stop-color="#E7E3E0"/>
<stop offset="0.06" stop-color="#D8D4D3"/>
<stop offset="0.19" stop-color="#B2ADB0"/>
<stop offset="0.26" stop-color="#989398"/>
<stop offset="0.52" stop-color="#F8F8F8"/>
<stop offset="0.59" stop-color="#EAE9EA"/>
<stop offset="0.71" stop-color="#C5C2C4"/>
<stop offset="0.88" stop-color="#8C878A"/>
<stop offset="1" stop-color="#B2B2B2"/>
</linearGradient>
<linearGradient id="paint3_linear_298_47" x1="16.6064" y1="22.0512" x2="32.1846" y2="22.0512" gradientUnits="userSpaceOnUse">
<stop stop-color="#E7E3E0"/>
<stop offset="0.06" stop-color="#D8D4D3"/>
<stop offset="0.19" stop-color="#B2ADB0"/>
<stop offset="0.26" stop-color="#989398"/>
<stop offset="0.52" stop-color="#F8F8F8"/>
<stop offset="0.59" stop-color="#EAE9EA"/>
<stop offset="0.71" stop-color="#C5C2C4"/>
<stop offset="0.88" stop-color="#8C878A"/>
<stop offset="1" stop-color="#B2B2B2"/>
</linearGradient>
</defs>
    </symbol>
    <symbol id="inst" viewBox="0 0 17 17">
        <g clip-path="url(#clip0_298_20)">
            
            <path d="M12.1618 8.42494C12.1618 8.98279 12.1897 9.54306 12.155 10.099C12.1068 10.8651 11.79 11.491 11.0702 11.8511C10.7223 12.0202 10.3398 12.106 9.95303 12.1019C8.95433 12.1086 7.95562 12.1086 6.95692 12.1019C6.59459 12.1042 6.23592 12.0292 5.90485 11.882C5.22694 11.5729 4.88509 11.0175 4.7742 10.302C4.74944 10.1311 4.73767 9.95867 4.739 9.78606C4.73562 8.85454 4.72887 7.92253 4.74286 6.98956C4.74508 6.71233 4.78449 6.43665 4.86002 6.16989C5.1011 5.35023 5.68258 4.91629 6.50272 4.77791C6.70054 4.74569 6.90065 4.72957 7.10108 4.7297C8.04 4.72552 8.97859 4.72552 9.91687 4.7297C10.2505 4.72666 10.5818 4.78585 10.8937 4.90424C11.6406 5.19353 12.0205 5.77212 12.1367 6.54356C12.1602 6.71452 12.1716 6.88692 12.1709 7.05947C12.1758 7.51318 12.1709 7.96737 12.1709 8.42108L12.1618 8.42494ZM8.45208 11.4071V11.4196C8.53598 11.4196 8.62035 11.4196 8.70473 11.4196C9.20569 11.409 9.70809 11.4167 10.2071 11.3805C10.7756 11.3391 11.1931 11.0498 11.3788 10.4958C11.4476 10.2823 11.4833 10.0595 11.4844 9.83524C11.4954 8.91577 11.4901 7.99582 11.4877 7.07635C11.4877 6.94003 11.4796 6.80383 11.4636 6.66845C11.3908 6.06286 11.0109 5.63037 10.4198 5.49295C10.2556 5.456 10.088 5.43628 9.91976 5.43413C9.33442 5.42352 8.74908 5.41774 8.16375 5.42111C7.67436 5.424 7.18401 5.42111 6.69703 5.4592C6.13436 5.50259 5.71922 5.78803 5.53408 6.33769C5.46482 6.54683 5.42823 6.76541 5.42559 6.9857C5.41402 7.91337 5.4198 8.84104 5.42173 9.7687C5.41985 9.90112 5.4284 10.0335 5.44729 10.1646C5.53311 10.7002 5.7819 11.1221 6.32385 11.2962C6.53805 11.362 6.76035 11.3979 6.9844 11.4027C7.4733 11.4177 7.96269 11.4071 8.45208 11.4071Z" />
            <path d="M6.49886 8.41036C6.50134 8.02373 6.61833 7.64651 6.83507 7.32634C7.05181 7.00617 7.35857 6.75742 7.71661 6.61148C8.07464 6.46555 8.46789 6.429 8.84669 6.50643C9.22549 6.58387 9.57285 6.77182 9.84489 7.04655C10.1169 7.32129 10.3014 7.67047 10.3752 8.05002C10.4489 8.42956 10.4084 8.82243 10.259 9.17902C10.1095 9.5356 9.85776 9.83989 9.53548 10.0535C9.21319 10.267 8.83484 10.3803 8.44821 10.379C8.19066 10.3788 7.9357 10.3275 7.69805 10.2283C7.46039 10.129 7.24473 9.98368 7.06352 9.80067C6.8823 9.61766 6.73911 9.40059 6.6422 9.16196C6.54528 8.92334 6.49657 8.6679 6.49886 8.41036ZM9.71773 8.42289C9.71792 8.1732 9.64408 7.92906 9.50555 7.72133C9.36702 7.51359 9.17 7.35159 8.93942 7.2558C8.70884 7.16 8.45503 7.13472 8.21008 7.18314C7.96513 7.23156 7.74003 7.35151 7.56324 7.52783C7.38645 7.70415 7.2659 7.92893 7.21682 8.17375C7.16775 8.41857 7.19235 8.67244 7.28753 8.90328C7.38271 9.13411 7.54419 9.33155 7.75155 9.47064C7.95892 9.60973 8.20286 9.68421 8.45255 9.68469C8.61855 9.6852 8.78302 9.65293 8.93653 9.58974C9.09004 9.52655 9.22956 9.43368 9.3471 9.31646C9.46464 9.19923 9.55788 9.05996 9.62148 8.90662C9.68508 8.75328 9.71779 8.5889 9.71773 8.42289Z" />
            <path d="M10.424 6.86022C10.3207 6.86022 10.2216 6.81917 10.1485 6.74611C10.0755 6.67305 10.0344 6.57396 10.0344 6.47064C10.0344 6.36732 10.0755 6.26822 10.1485 6.19516C10.2216 6.1221 10.3207 6.08105 10.424 6.08105C10.5273 6.08105 10.6264 6.1221 10.6995 6.19516C10.7725 6.26822 10.8136 6.36732 10.8136 6.47064C10.8136 6.57396 10.7725 6.67305 10.6995 6.74611C10.6264 6.81917 10.5273 6.86022 10.424 6.86022Z" />
        </g>
    </symbol>
    <symbol id="youtube" viewBox="0 0 17 17">
        
        <path d="M8.70989 11.4968C7.77571 11.4295 6.80527 11.368 5.83428 11.2852C5.48363 11.2491 5.1547 11.091 4.9001 10.8362C4.69613 10.6402 4.56396 10.3759 4.52643 10.0888C4.30171 8.73141 4.30989 7.34297 4.55061 5.98856C4.60556 5.67179 4.7836 5.44182 5.01879 5.2544C5.29604 5.03906 5.62574 4.90993 5.97 4.88186C7.67429 4.69773 9.39154 4.68541 11.0981 4.84507C11.4073 4.87233 11.7143 4.92228 12.0169 4.99455C12.2916 5.06296 12.5202 5.23716 12.7148 5.45447C12.9093 5.67179 12.9675 5.94487 13.0109 6.22715C13.2224 7.56286 13.2018 8.92752 12.9499 10.2555C12.9148 10.4401 12.7939 10.6246 12.6691 10.7689C12.374 11.111 11.9801 11.272 11.5476 11.3042C10.6189 11.3778 9.68693 11.4324 8.70989 11.4968ZM7.71472 9.85483L10.4529 8.09561L7.71472 6.33581V9.85483Z"/>
    </symbol>
    <symbol id="prev" viewBox="0 0 27 12">
        <path d="M0.505026 5.50503C0.231659 5.77839 0.231659 6.22161 0.505026 6.49497L4.9598 10.9497C5.23317 11.2231 5.67638 11.2231 5.94975 10.9497C6.22311 10.6764 6.22311 10.2332 5.94975 9.9598L1.98995 6L5.94975 2.0402C6.22311 1.76684 6.22311 1.32362 5.94975 1.05025C5.67638 0.776886 5.23317 0.776886 4.9598 1.05025L0.505026 5.50503ZM27 5.3L1 5.3V6.7L27 6.7V5.3Z"/>
    </symbol>
    <symbol id="next" viewBox="0 0 27 12">
        <path d="M26.495 6.49498C26.7683 6.22161 26.7683 5.77839 26.495 5.50503L22.0402 1.05025C21.7668 0.776887 21.3236 0.776887 21.0503 1.05025C20.7769 1.32362 20.7769 1.76684 21.0503 2.0402L25.01 6L21.0503 9.9598C20.7769 10.2332 20.7769 10.6764 21.0503 10.9497C21.3236 11.2231 21.7668 11.2231 22.0402 10.9497L26.495 6.49498ZM-7.45096e-08 6.7L26 6.7L26 5.3L7.45096e-08 5.3L-7.45096e-08 6.7Z" />
    </symbol>
    <symbol id="cloud" viewBox="0 0 21 20">
        <path d="M17.2109 5.89117C18.0288 5.87808 18.826 6.14799 19.4678 6.6552C20.0121 7.08106 20.4182 7.65835 20.6352 8.31445C20.8522 8.97056 20.8703 9.67618 20.6873 10.3426C20.3045 11.6956 19.1092 12.7268 17.7265 12.8909C17.5392 12.9129 17.3509 12.9244 17.1624 12.9253C16.1015 12.9253 15.0406 12.9253 13.9797 12.9253H13.7454V12.7042C13.7454 11.8323 13.7454 10.9597 13.7454 10.0879C13.7454 8.98558 12.9962 8.23951 11.8931 8.23795C11.1642 8.23795 10.4353 8.23795 9.70569 8.23795C8.64479 8.23795 7.88935 8.99886 7.88701 10.0621C7.88701 11.0058 7.88701 11.9495 7.88701 12.9089C7.83656 12.9169 7.7857 12.9221 7.73467 12.9245C6.98001 12.9245 6.22457 12.9315 5.46913 12.9245C4.83657 12.915 4.21235 12.7786 3.6335 12.5233C3.05465 12.268 2.53296 11.8991 2.09937 11.4384C1.66579 10.9777 1.32914 10.4346 1.10938 9.8414C0.889634 9.24815 0.79126 8.61682 0.820097 7.98484C0.932592 5.73649 2.75908 3.81469 5.00275 3.58579C5.15041 3.56168 5.30009 3.55226 5.4496 3.55767C5.64725 3.57798 5.71834 3.50454 5.78318 3.31705C6.38238 1.57259 7.57061 0.442945 9.38929 0.0859276C11.4205 -0.314057 13.418 0.710903 14.368 2.5663C14.5118 2.84754 14.6024 3.15768 14.7266 3.44908C14.7424 3.48717 14.7656 3.52177 14.7948 3.55086C14.824 3.57996 14.8587 3.60298 14.8969 3.6186C16.0929 3.90531 16.8617 4.63419 17.1843 5.82242C17.192 5.84577 17.2009 5.86871 17.2109 5.89117Z" fill="#8C7C53" fill-opacity="0.5"/>
        <path d="M12.5732 15.2698C12.9638 15.2698 13.32 15.2698 13.6778 15.2698C13.9426 15.2698 14.1504 15.3612 14.2692 15.6033C14.3879 15.8455 14.3223 16.0807 14.1497 16.2885C13.2054 17.4343 12.2615 18.5785 11.3177 19.7212C11.0092 20.0946 10.6209 20.0946 10.3147 19.7212C9.3699 18.5754 8.42566 17.4311 7.48195 16.2885C7.3093 16.0807 7.23587 15.8588 7.35852 15.6049C7.48117 15.351 7.696 15.2627 7.96709 15.2674C8.32332 15.2729 8.67956 15.2674 9.05611 15.2674V15.0237C9.05611 13.3836 9.05611 11.7431 9.05611 10.102C9.05611 9.63327 9.27797 9.40906 9.74749 9.40906H11.8755C12.3482 9.40906 12.5716 9.63014 12.5716 10.0981C12.5716 11.7386 12.5716 13.3792 12.5716 15.0198L12.5732 15.2698Z" fill="#8C7C53" fill-opacity="0.5"/>
    </symbol>
</svg>